<svg width="1568" height="1568" viewBox="0 0 1568 1568" fill="none" xmlns="http://www.w3.org/2000/svg">
<g opacity="0.7">
<path opacity="0.7" d="M783.51 1567.02C1216.23 1567.02 1567.02 1216.23 1567.02 783.51C1567.02 350.789 1216.23 0 783.51 0C350.789 0 0 350.789 0 783.51C0 1216.23 350.789 1567.02 783.51 1567.02Z" fill="url(#paint0_radial_1475_17701)"/>
</g>
<path d="M783.509 1374.41C1109.85 1374.41 1374.41 1109.86 1374.41 783.51C1374.41 457.165 1109.85 192.61 783.509 192.61C457.164 192.61 192.609 457.165 192.609 783.51C192.609 1109.86 457.164 1374.41 783.509 1374.41Z" fill="#004A99"/>
<mask id="mask0_1475_17701" style="mask-type:luminance" maskUnits="userSpaceOnUse" x="192" y="192" width="1183" height="1183">
<path d="M783.509 1374.41C1109.85 1374.41 1374.41 1109.86 1374.41 783.51C1374.41 457.165 1109.85 192.61 783.509 192.61C457.164 192.61 192.609 457.165 192.609 783.51C192.609 1109.86 457.164 1374.41 783.509 1374.41Z" fill="white"/>
</mask>
<g mask="url(#mask0_1475_17701)">
<path fill-rule="evenodd" clip-rule="evenodd" d="M403.111 458.48C219.171 695.31 262.051 1036.41 498.871 1220.35C735.701 1404.29 1076.8 1361.41 1260.74 1124.57C1444.67 887.75 1401.8 546.65 1164.97 362.71C928.141 178.77 587.041 221.66 403.111 458.48Z" fill="#004A99"/>
<path d="M1488.01 944.07C1491.85 974.59 1470.14 1002.53 1439.63 1006.37L1323.23 1021C1308.45 1022.86 1293.83 1018.85 1282.07 1009.71C1270.3 1000.57 1262.8 987.4 1260.95 972.62L1260.64 970.14C1258.78 955.36 1262.79 940.74 1271.93 928.98C1281.07 917.22 1294.24 909.71 1309.02 907.85L1425.42 893.22C1440.2 891.36 1454.82 895.37 1466.58 904.51C1478.35 913.65 1485.85 926.82 1487.7 941.6L1488.01 944.07Z" fill="#2659A5" stroke="#2659A5" stroke-width="63.4" stroke-linecap="round" stroke-linejoin="round"/>
<path d="M448.78 344.41L392.09 300.37C384.34 294.35 373.13 295.76 367.11 303.51C342.72 334.92 297.32 340.63 265.91 316.23L176.41 246.72C166.63 239.12 154.47 235.79 142.18 237.33L79.5399 245.2C63.8898 247.17 52.7999 261.45 54.7699 277.09L56.0298 287.13C57.6699 300.17 65.3699 311.82 76.9999 317.94C81.0199 320.06 84.8799 322.54 88.5399 325.38C104.84 338.04 115.24 356.29 117.81 376.78L132.72 495.4C132.81 496.11 133.18 496.75 133.74 497.19L174.94 529.19C199.81 548.51 204.31 584.33 185 609.2L116.42 697.5C97.0999 722.37 61.2798 726.87 36.4099 707.56L-56.5701 635.35C-86.1201 655.23 -126.33 655.01 -155.96 632L-316.92 506.99C-338.88 489.93 -347.51 461.97 -341.09 436.59L-485.97 324.07C-511.17 304.5 -516.31 267.45 -496.31 242.59C-476.89 218.44 -441.49 214.22 -416.92 233.31L-400.6 245.98C-382.43 260.09 -359.39 266.41 -336.56 263.54L-279.71 256.39C-256.88 253.52 -236.13 241.7 -222.01 223.53L-191.8 184.64C-182.58 172.77 -169.3 165.13 -154.41 163.11L171.87 118.96C183.91 117.33 194.83 111.04 202.28 101.45L228.14 68.1601C244.52 47.0701 268.62 33.3401 295.12 30.0101L387.98 18.3401C400.18 16.8101 411.28 10.4901 418.83 0.770081L528.01 -139.8C546.36 -163.43 582.05 -169.62 606.52 -152.39C633.15 -133.64 638.57 -96.6499 619.05 -71.1099C610.57 -60.0199 606.43 -46.2299 608.17 -32.3799L631.52 153.33C634.92 180.4 627.58 207.17 610.85 228.72L528.79 334.37C509.5 359.2 473.61 363.71 448.78 344.43V344.41Z" fill="#2659A5" stroke="#2659A5" stroke-width="63.4" stroke-linecap="round" stroke-linejoin="round"/>
<path d="M1069.5 472.32C1070.61 481.29 1077.64 488.44 1086.62 489.53C1106.99 492 1132.3 510.2 1148.9 523.09L1150.87 524.62C1175.2 543.51 1179.6 578.55 1160.71 602.87L1142.9 625.8C1124.01 650.13 1088.97 654.53 1064.65 635.64L1062.68 634.11C1062.54 634 1062.4 633.89 1062.26 633.78C1048.33 622.98 1028.28 634.44 1030.48 651.94L1031.15 657.26C1033.8 678.36 1028.08 699.23 1015.04 716.02L972.909 770.26C960.989 785.61 963.039 807.3 977.159 820.66C977.309 820.8 977.459 820.94 977.599 821.08C985.149 828.38 990.549 837.72 993.069 847.92C997.369 865.28 993.579 882.93 982.769 896.81C973.219 909.08 958.859 916.67 943.409 918.47C925.689 920.08 918.939 942.45 932.809 953.59L939.559 959.01C952.889 969.36 969.459 973.91 986.209 971.8L1033.09 965.91C1049.72 963.82 1064.84 955.21 1075.12 941.97L1086.95 926.74C1105.84 902.41 1140.88 898.01 1165.2 916.9L1167.17 918.43C1191.5 937.32 1195.9 972.36 1177.01 996.68L1171.63 1003.6C1167.46 1008.97 1165.6 1015.63 1166.38 1022.37C1166.92 1027.03 1168.83 1031.38 1172.03 1034.81C1177.04 1040.2 1184.03 1042.71 1191.12 1041.82L1295.79 1028.66C1295.94 1028.64 1296.09 1028.62 1296.24 1028.6C1317.01 1026.16 1336.77 1038.28 1344.69 1057.63L1348.01 1065.74C1353.55 1079.28 1371.68 1081.72 1380.6 1070.12C1394.24 1052.55 1416.31 1045.37 1436.68 1049.86C1451.6 1053.15 1467.02 1047.13 1475.07 1034.15L1475.55 1033.38L1477.08 1031.41C1495.97 1007.08 1531.01 1002.68 1555.33 1021.57L1560 1025.2C1563.72 1028.09 1569.07 1025.03 1568.47 1020.36L1568.44 1020.12L1560.23 954.81C1559.38 948.04 1555.94 942.01 1550.55 937.82C1515.77 910.81 1509.45 860.53 1536.46 825.74L1566.4 787.19C1585.55 762.53 1621.12 756.88 1646.16 775.53C1668.53 792.19 1675.1 822.05 1663.47 846.1L1683.69 861.8C1689.04 865.96 1695.82 867.82 1702.55 866.97L1771.42 858.31C1792.06 855.72 1813.13 860.93 1829.58 873.66C1845.92 886.3 1856.34 904.56 1858.92 925.05L1866.17 982.7C1868.74 1003.14 1863.19 1023.36 1850.56 1039.63C1837.92 1055.9 1819.7 1066.28 1799.26 1068.85L1689.34 1082.67C1672.42 1087.12 1662.1 1104.66 1667.16 1121.41C1672.21 1138.13 1669.36 1156.95 1657.83 1171.8L1656.3 1173.77C1637.41 1198.1 1602.37 1202.5 1578.05 1183.61L1514.11 1133.81C1500.57 1123.26 1481.32 1126.07 1470.94 1139.74C1470.85 1139.86 1470.76 1139.97 1470.68 1140.08L1452.87 1163.01C1441.45 1177.72 1424.13 1185.14 1406.84 1184.54C1389.42 1183.93 1375.16 1198.34 1375.53 1215.77C1376.19 1221 1373.19 1233.94 1369.4 1247.03C1363.52 1267.34 1371.97 1289.06 1390.05 1300.02C1419.34 1317.76 1426.12 1354.4 1405.12 1381.44L1366.06 1431.74C1347.17 1456.07 1312.13 1460.47 1287.81 1441.58L1285.84 1440.05C1285.7 1439.94 1285.57 1439.84 1285.44 1439.73C1267.27 1425.35 1240.99 1428.12 1226.77 1446.43C1205.63 1473.65 1210.56 1512.84 1237.78 1533.98L1265.86 1555.79C1291.06 1575.36 1296.2 1612.41 1276.2 1637.27C1256.78 1661.42 1221.38 1665.64 1196.81 1646.55L999.419 1493.24C974.619 1473.98 965.369 1442.02 973.709 1413.57L872.069 1334.63C860.879 1325.94 846.949 1321.52 832.789 1322.18L790.959 1324.13C763.899 1325.39 737.219 1316.94 715.819 1300.32L715.169 1299.81L582.929 1195.54C565.099 1181.48 553.719 1161.33 550.889 1138.81L544.869 1090.91C544.849 1090.75 544.799 1090.32 544.319 1089.95C543.849 1089.58 543.419 1089.64 543.249 1089.66L507.189 1094.19C484.389 1097.06 461.829 1090.87 443.679 1076.77C427.439 1064.16 416.489 1046.56 412.299 1026.67H412.279L412.199 1026.15C411.759 1023.97 411.369 1021.78 411.089 1019.55L410.889 1017.99L400.139 950.96C398.389 940.04 392.599 930.18 383.929 923.32L328.779 879.75C309.769 864.73 306.429 837.2 321.279 818.07L404.899 710.4C412.079 701.16 422.629 695.15 434.239 693.69L450.509 691.64C474.689 688.6 491.819 666.54 488.779 642.36L482.239 590.34L479.959 572.23C477.329 551.28 483.119 530.15 496.069 513.47L506.139 500.5C519.179 483.71 537.989 473 559.079 470.35L627.709 461.72C648.659 459.09 669.789 464.88 686.469 477.83L728.269 510.29C739.299 518.85 755.179 516.86 763.739 505.83L912.859 313.84C927.719 294.71 950.129 283.5 974.349 283.08C992.439 282.76 1010.27 288.7 1024.55 299.79C1041.35 312.84 1052.06 331.64 1054.72 352.74L1069.51 472.3L1069.5 472.32Z" fill="#2659A5" stroke="#2659A5" stroke-width="63.4" stroke-linecap="round" stroke-linejoin="round"/>
<path d="M1488.01 944.07C1491.85 974.59 1470.14 1002.53 1439.63 1006.37L1323.23 1021C1308.45 1022.86 1293.83 1018.85 1282.07 1009.71C1270.3 1000.57 1262.8 987.4 1260.95 972.62L1260.64 970.14C1258.78 955.36 1262.79 940.74 1271.93 928.98C1281.07 917.22 1294.24 909.71 1309.02 907.85L1425.42 893.22C1440.2 891.36 1454.82 895.37 1466.58 904.51C1478.35 913.65 1485.85 926.82 1487.7 941.6L1488.01 944.07Z" fill="#2A6AB1"/>
<path d="M448.78 344.41L392.09 300.37C384.34 294.35 373.13 295.76 367.11 303.51C342.72 334.92 297.32 340.63 265.91 316.23L176.41 246.72C166.63 239.12 154.47 235.79 142.18 237.33L79.5399 245.2C63.8898 247.17 52.7999 261.45 54.7699 277.09L56.0298 287.13C57.6699 300.17 65.3699 311.82 76.9999 317.94C81.0199 320.06 84.8799 322.54 88.5399 325.38C104.84 338.04 115.24 356.29 117.81 376.78L132.72 495.4C132.81 496.11 133.18 496.75 133.74 497.19L174.94 529.19C199.81 548.51 204.31 584.33 185 609.2L116.42 697.5C97.0999 722.37 61.2798 726.87 36.4099 707.56L-56.5701 635.35C-86.1201 655.23 -126.33 655.01 -155.96 632L-316.92 506.99C-338.88 489.93 -347.51 461.97 -341.09 436.59L-485.97 324.07C-511.17 304.5 -516.31 267.45 -496.31 242.59C-476.89 218.44 -441.49 214.22 -416.92 233.31L-400.6 245.98C-382.43 260.09 -359.39 266.41 -336.56 263.54L-279.71 256.39C-256.88 253.52 -236.13 241.7 -222.01 223.53L-191.8 184.64C-182.58 172.77 -169.3 165.13 -154.41 163.11L171.87 118.96C183.91 117.33 194.83 111.04 202.28 101.45L228.14 68.1601C244.52 47.0701 268.62 33.3401 295.12 30.0101L387.98 18.3401C400.18 16.8101 411.28 10.4901 418.83 0.770081L528.01 -139.8C546.36 -163.43 582.05 -169.62 606.52 -152.39C633.15 -133.64 638.57 -96.6499 619.05 -71.1099C610.57 -60.0199 606.43 -46.2299 608.17 -32.3799L631.52 153.33C634.92 180.4 627.58 207.17 610.85 228.72L528.79 334.37C509.5 359.2 473.61 363.71 448.78 344.43V344.41Z" fill="#2A6AB1"/>
<path d="M1069.5 472.32C1070.61 481.29 1077.64 488.44 1086.62 489.53C1106.99 492 1132.3 510.2 1148.9 523.09L1150.87 524.62C1175.2 543.51 1179.6 578.55 1160.71 602.87L1142.9 625.8C1124.01 650.13 1088.97 654.53 1064.65 635.64L1062.68 634.11C1062.54 634 1062.4 633.89 1062.26 633.78C1048.33 622.98 1028.28 634.44 1030.48 651.94L1031.15 657.26C1033.8 678.36 1028.08 699.23 1015.04 716.02L972.909 770.26C960.989 785.61 963.039 807.3 977.159 820.66C977.309 820.8 977.459 820.94 977.599 821.08C985.149 828.38 990.549 837.72 993.069 847.92C997.369 865.28 993.579 882.93 982.769 896.81C973.219 909.08 958.859 916.67 943.409 918.47C925.689 920.08 918.939 942.45 932.809 953.59L939.559 959.01C952.889 969.36 969.459 973.91 986.209 971.8L1033.09 965.91C1049.72 963.82 1064.84 955.21 1075.12 941.97L1086.95 926.74C1105.84 902.41 1140.88 898.01 1165.2 916.9L1167.17 918.43C1191.5 937.32 1195.9 972.36 1177.01 996.68L1171.63 1003.6C1167.46 1008.97 1165.6 1015.63 1166.38 1022.37C1166.92 1027.03 1168.83 1031.38 1172.03 1034.81C1177.04 1040.2 1184.03 1042.71 1191.12 1041.82L1295.79 1028.66C1295.94 1028.64 1296.09 1028.62 1296.24 1028.6C1317.01 1026.16 1336.77 1038.28 1344.69 1057.63L1348.01 1065.74C1353.55 1079.28 1371.68 1081.72 1380.6 1070.12C1394.24 1052.55 1416.31 1045.37 1436.68 1049.86C1451.6 1053.15 1467.02 1047.13 1475.07 1034.15L1475.55 1033.38L1477.08 1031.41C1495.97 1007.08 1531.01 1002.68 1555.33 1021.57L1560 1025.2C1563.72 1028.09 1569.07 1025.03 1568.47 1020.36L1568.44 1020.12L1560.23 954.81C1559.38 948.04 1555.94 942.01 1550.55 937.82C1515.77 910.81 1509.45 860.53 1536.46 825.74L1566.4 787.19C1585.55 762.53 1621.12 756.88 1646.16 775.53C1668.53 792.19 1675.1 822.05 1663.47 846.1L1683.69 861.8C1689.04 865.96 1695.82 867.82 1702.55 866.97L1771.42 858.31C1792.06 855.72 1813.13 860.93 1829.58 873.66C1845.92 886.3 1856.34 904.56 1858.92 925.05L1866.17 982.7C1868.74 1003.14 1863.19 1023.36 1850.56 1039.63C1837.92 1055.9 1819.7 1066.28 1799.26 1068.85L1689.34 1082.67C1672.42 1087.12 1662.1 1104.66 1667.16 1121.41C1672.21 1138.13 1669.36 1156.95 1657.83 1171.8L1656.3 1173.77C1637.41 1198.1 1602.37 1202.5 1578.05 1183.61L1514.11 1133.81C1500.57 1123.26 1481.32 1126.07 1470.94 1139.74C1470.85 1139.86 1470.76 1139.97 1470.68 1140.08L1452.87 1163.01C1441.45 1177.72 1424.13 1185.14 1406.84 1184.54C1389.42 1183.93 1375.16 1198.34 1375.53 1215.77C1376.19 1221 1373.19 1233.94 1369.4 1247.03C1363.52 1267.34 1371.97 1289.06 1390.05 1300.02C1419.34 1317.76 1426.12 1354.4 1405.12 1381.44L1366.06 1431.74C1347.17 1456.07 1312.13 1460.47 1287.81 1441.58L1285.84 1440.05C1285.7 1439.94 1285.57 1439.84 1285.44 1439.73C1267.27 1425.35 1240.99 1428.12 1226.77 1446.43C1205.63 1473.65 1210.56 1512.84 1237.78 1533.98L1265.86 1555.79C1291.06 1575.36 1296.2 1612.41 1276.2 1637.27C1256.78 1661.42 1221.38 1665.64 1196.81 1646.55L999.419 1493.24C974.619 1473.98 965.369 1442.02 973.709 1413.57L872.069 1334.63C860.879 1325.94 846.949 1321.52 832.789 1322.18L790.959 1324.13C763.899 1325.39 737.219 1316.94 715.819 1300.32L715.169 1299.81L582.929 1195.54C565.099 1181.48 553.719 1161.33 550.889 1138.81L544.869 1090.91C544.849 1090.75 544.799 1090.32 544.319 1089.95C543.849 1089.58 543.419 1089.64 543.249 1089.66L507.189 1094.19C484.389 1097.06 461.829 1090.87 443.679 1076.77C427.439 1064.16 416.489 1046.56 412.299 1026.67H412.279L412.199 1026.15C411.759 1023.97 411.369 1021.78 411.089 1019.55L410.889 1017.99L400.139 950.96C398.389 940.04 392.599 930.18 383.929 923.32L328.779 879.75C309.769 864.73 306.429 837.2 321.279 818.07L404.899 710.4C412.079 701.16 422.629 695.15 434.239 693.69L450.509 691.64C474.689 688.6 491.819 666.54 488.779 642.36L482.239 590.34L479.959 572.23C477.329 551.28 483.119 530.15 496.069 513.47L506.139 500.5C519.179 483.71 537.989 473 559.079 470.35L627.709 461.72C648.659 459.09 669.789 464.88 686.469 477.83L728.269 510.29C739.299 518.85 755.179 516.86 763.739 505.83L912.859 313.84C927.719 294.71 950.129 283.5 974.349 283.08C992.439 282.76 1010.27 288.7 1024.55 299.79C1041.35 312.84 1052.06 331.64 1054.72 352.74L1069.51 472.3L1069.5 472.32Z" fill="#2A6AB1"/>
<path d="M368.248 804.032L350.44 826.958C340.747 839.436 343.004 857.41 355.483 867.103L357.449 868.63C369.928 878.323 387.901 876.066 397.594 863.587L415.403 840.661C425.096 828.183 422.838 810.21 410.36 800.516L408.394 798.989C395.915 789.296 377.942 791.554 368.248 804.032Z" fill="#009F79"/>
<path d="M1402.11 1087L1384.3 1109.93C1374.6 1122.4 1376.86 1140.38 1389.34 1150.07L1391.31 1151.6C1403.78 1161.29 1421.76 1159.03 1431.45 1146.56L1449.26 1123.63C1458.95 1111.15 1456.7 1093.18 1444.22 1083.48L1442.25 1081.96C1429.77 1072.26 1411.8 1074.52 1402.11 1087Z" fill="#009F79"/>
<path d="M1336.52 1328.36L1297.46 1378.65C1287.76 1391.13 1290.02 1409.11 1302.5 1418.8L1304.47 1420.33C1316.95 1430.02 1334.92 1427.76 1344.61 1415.28L1383.68 1364.99C1393.37 1352.51 1391.11 1334.54 1378.63 1324.85L1376.67 1323.32C1364.19 1313.63 1346.22 1315.88 1336.52 1328.36Z" fill="#009F79"/>
<path d="M1428.72 920.343L1312.32 934.964C1296.64 936.934 1285.53 951.24 1287.5 966.917L1287.81 969.388C1289.78 985.065 1304.09 996.178 1319.76 994.209L1436.16 979.587C1451.84 977.618 1462.95 963.312 1460.98 947.634L1460.67 945.164C1458.7 929.486 1444.39 918.373 1428.72 920.343Z" fill="#009F79"/>
<path d="M1092.17 549.725L1074.37 572.651C1064.67 585.129 1066.93 603.103 1079.41 612.796L1081.37 614.324C1093.85 624.017 1111.83 621.759 1121.52 609.281L1139.33 586.355C1149.02 573.876 1146.76 555.903 1134.29 546.21L1132.32 544.682C1119.84 534.989 1101.87 537.247 1092.17 549.725Z" fill="#009F79"/>
<path d="M507.329 317.7C497.209 330.72 478.459 333.08 465.429 322.96L408.749 278.92C389.139 263.68 360.889 267.23 345.659 286.85C330.429 306.46 302.179 310.01 282.569 294.78L193.069 225.27C177.669 213.31 158.139 207.95 138.789 210.38L50.4891 221.48C34.1291 223.54 22.5291 238.47 24.5891 254.83L34.8791 336.71C62.3391 333.26 87.399 352.72 90.8591 380.18L105.769 498.8C106.759 506.66 110.829 513.8 117.079 518.66L158.289 550.66C171.309 560.77 173.669 579.53 163.559 592.55L94.9791 680.85C84.8691 693.87 66.1091 696.23 53.0891 686.12L-57.4509 600.27C-57.7509 600.03 -58.1909 600.09 -58.4309 600.39C-77.9509 625.52 -114.141 630.07 -139.281 610.55L-300.241 485.54C-318.031 471.73 -321.251 446.11 -307.431 428.32L-470.181 301.91C-483.201 291.8 -485.561 273.04 -475.451 260.02C-465.341 247 -446.581 244.64 -433.561 254.75L-417.241 267.42C-393.381 285.95 -363.131 294.25 -333.151 290.48L-276.301 283.33C-246.321 279.56 -219.071 264.04 -200.541 240.18L-170.331 201.29C-165.531 195.11 -158.501 191.07 -150.751 190.02L175.529 145.87C194.619 143.29 211.929 133.32 223.749 118.1L249.609 84.8102C261.569 69.4102 279.169 59.3802 298.519 56.9502L391.389 45.2802C410.739 42.8502 428.339 32.8302 440.299 17.4202L550.179 -124.06C560.289 -137.08 579.049 -139.44 592.069 -129.33C605.089 -119.22 607.449 -100.46 597.339 -87.4398C584.419 -70.7998 578.629 -49.7098 581.259 -28.8098L604.589 156.69C607.069 176.42 601.609 196.33 589.419 212.03L507.359 317.69L507.329 317.7Z" fill="#009F79"/>
<path d="M345.66 286.85C330.43 306.46 302.18 310.01 282.57 294.78L193.07 225.27C177.99 213.56 158.95 208.2 140 210.26L153.88 208.53C161.4 207.52 170.48 200.41 175.08 194.38C183.95 182.75 181.72 166.12 170.08 157.25L158.24 148.22L175.51 145.88C194.6 143.3 211.92 133.33 223.73 118.11L249.59 84.8204C251.91 81.8304 254.45 79.0504 257.16 76.4904C257.5 76.1704 257.84 75.8704 258.19 75.5604C259.01 74.8204 259.84 74.0904 260.68 73.3904C261.06 73.0804 261.43 72.7604 261.81 72.4604C262.27 72.0904 262.74 71.7304 263.21 71.3704C263.61 71.0704 264.01 70.7704 264.41 70.4804C264.88 70.1404 265.35 69.8004 265.83 69.4704C266.26 69.1704 266.7 68.8804 267.14 68.5904C267.6 68.2904 268.06 67.9804 268.52 67.6804C269.28 67.2004 270.04 66.7504 270.81 66.3004C271.3 66.0104 271.81 65.7404 272.31 65.4704C272.86 65.1704 273.41 64.8704 273.97 64.5804C274.41 64.3504 274.86 64.1404 275.3 63.9204C275.85 63.6504 276.4 63.3904 276.96 63.1304C277.4 62.9304 277.83 62.7304 278.28 62.5404C278.89 62.2704 279.52 62.0204 280.14 61.7604C280.53 61.6004 280.91 61.4404 281.3 61.2904C282.29 60.9104 283.3 60.5404 284.31 60.2004C284.51 60.1304 284.71 60.0804 284.91 60.0104C285.76 59.7304 286.62 59.4704 287.48 59.2204C287.84 59.1204 288.21 59.0204 288.58 58.9204C289.3 58.7304 290.02 58.5404 290.75 58.3704C291.13 58.2804 291.52 58.1904 291.9 58.1104C292.66 57.9404 293.42 57.7904 294.18 57.6504C294.52 57.5904 294.85 57.5204 295.19 57.4604C296.29 57.2704 297.39 57.1004 298.5 56.9604L314.71 54.9204L315.14 58.0804C318.91 86.1204 311.36 114.5 294.15 136.95L259.48 182.19C254.88 188.22 252.86 195.83 253.87 203.35L256.91 225.96C259.02 241.62 273.42 252.6 289.08 250.5L312.67 247.33C319.08 246.47 323.58 240.57 322.72 234.16L316.33 186.69C314.22 171.03 325.21 156.63 340.87 154.52L343.35 154.19C359.01 152.08 373.41 163.07 375.51 178.73L383.57 238.64C385.03 249.52 383.42 260.1 379.4 269.52C366.61 270.03 354.13 275.96 345.66 286.86V286.85Z" fill="#009F79"/>
<path d="M476.63 195.46C459.33 182.02 456.2 157.11 469.63 139.81L471.75 137.07C485.19 119.77 510.1 116.64 527.4 130.07L601.87 187.91C599.23 196.56 595.05 204.76 589.39 212.04L555 256.32L476.63 195.45V195.46Z" fill="#009F79"/>
<path d="M888.849 809.16L756.269 825.83C742.469 827.56 728.549 823.75 717.559 815.21L535.579 673.87C524.589 665.34 517.449 652.79 515.709 638.99L506.889 568.85C505.159 555.05 508.969 541.13 517.509 530.14L527.579 517.17C536.109 506.18 548.659 499.04 562.459 497.3L631.089 488.67C644.889 486.94 658.809 490.75 669.799 499.29L711.599 531.75C734.479 549.52 767.419 545.37 785.189 522.5L934.299 330.51C944.039 317.97 958.929 310.52 974.809 310.24C1001.59 309.77 1024.42 329.56 1027.76 356.14L1044.37 488.31C1046.1 502.11 1042.29 516.03 1033.75 527.02L1007.17 561.25C998.639 572.24 994.819 586.16 996.549 599.96L1004.18 660.64C1005.91 674.44 1002.1 688.36 993.559 699.35L923.719 789.28C915.189 800.27 902.639 807.41 888.839 809.15L888.849 809.16Z" fill="#00956D"/>
<path d="M610.561 568.142L580.379 606.996C563.957 628.137 567.782 658.587 588.923 675.009L592.271 677.61C613.411 694.032 643.862 690.206 660.283 669.066L690.466 630.211C706.887 609.071 703.062 578.621 681.922 562.199L678.573 559.598C657.433 543.176 626.983 547.001 610.561 568.142Z" fill="#009F79"/>
<path d="M817.444 668.856L759.938 676.488C728.65 680.641 706.651 709.371 710.804 740.66L711.462 745.617C715.614 776.905 744.345 798.903 775.634 794.751L833.14 787.119C864.429 782.966 886.427 754.235 882.274 722.947L881.616 717.99C877.464 686.702 848.733 664.703 817.444 668.856Z" fill="#009F79"/>
<path d="M855.857 561.208C838.263 547.541 812.921 550.723 799.256 568.315C785.59 585.907 788.775 611.248 806.369 624.915L837.674 649.233C855.269 662.9 880.61 659.718 894.275 642.126C907.941 624.534 904.756 599.193 887.162 585.526L855.857 561.208Z" fill="#009F79"/>
<path d="M958.669 451.53L959.099 454.97C961.829 476.7 946.429 496.54 924.699 499.27L790.109 516.19L861.919 423.73L914.369 417.14C936.099 414.41 955.939 429.81 958.669 451.54V451.53Z" fill="#009F79"/>
<path d="M731.938 1278.49L599.708 1174.23C587.598 1164.68 579.729 1150.74 577.799 1135.44L571.779 1087.54C569.809 1071.86 555.508 1060.75 539.828 1062.73L503.769 1067.26C471.509 1071.32 442.059 1048.45 438.009 1016.18L430.468 956.2C428.498 940.52 439.608 926.22 455.278 924.25L457.759 923.94C473.439 921.97 487.738 933.08 489.708 948.75L495.678 996.28C496.488 1002.7 502.349 1007.25 508.769 1006.44L532.379 1003.47C548.059 1001.5 559.168 987.19 557.188 971.52L554.338 948.89C553.388 941.36 549.499 934.52 543.499 929.87L498.399 895.01C476.019 877.71 461.459 852.2 457.929 824.14L448.559 749.59C446.589 733.91 457.699 719.61 473.369 717.64L475.848 717.33C491.528 715.36 505.829 726.47 507.799 742.14L518.078 823.92C519.028 831.45 522.919 838.29 528.919 842.94L537.529 849.62C550.009 859.31 567.979 857.05 577.669 844.57L591.808 826.36C601.498 813.88 619.468 811.62 631.948 821.31L633.919 822.84C646.399 832.53 648.658 850.5 638.968 862.98L623.529 882.86C614.549 894.42 616.648 911.06 628.198 920.04C634.188 924.69 641.788 926.78 649.308 925.83L702.789 919.11C718.469 917.14 729.579 902.83 727.609 887.16C725.639 871.48 736.749 857.18 752.419 855.21L934.169 832.36C950.189 830.35 964.879 841.49 967.269 857.45C969.749 874.06 957.998 889.42 941.318 891.36L896.889 896.54C870.729 899.45 861.359 932.69 882.149 948.83L922.869 980.46C941.799 995.16 965.788 1001.74 989.558 998.75L1036.44 992.86C1060.22 989.87 1081.83 977.56 1096.53 958.63L1108.36 943.4C1118.05 930.92 1136.02 928.66 1148.5 938.35L1150.47 939.88C1162.95 949.57 1165.21 967.54 1155.52 980.02L1150.14 986.94C1141.53 998.03 1137.67 1012.09 1139.42 1026.02C1142.81 1053.03 1167.46 1072.17 1194.46 1068.77L1299.13 1055.61C1314.81 1053.64 1329.11 1064.75 1331.08 1080.42L1348.52 1219.14C1350.49 1234.82 1339.38 1249.12 1323.71 1251.09L1265.59 1258.4C1235.85 1262.14 1225.47 1299.97 1249.15 1318.36C1263.83 1329.76 1266.48 1350.9 1255.09 1365.58L1167.87 1477.88C1158.18 1490.36 1160.44 1508.33 1172.92 1518.02L1250.04 1577.92C1263.06 1588.03 1265.42 1606.79 1255.31 1619.81C1245.2 1632.83 1226.44 1635.19 1213.42 1625.08L1016.03 1471.77C995.459 1455.8 991.739 1426.17 1007.71 1405.6L888.678 1313.15C872.378 1300.49 852.089 1294.06 831.469 1295.02L789.639 1296.97C768.799 1297.94 748.308 1291.37 731.928 1278.45L731.938 1278.49Z" fill="#009F79"/>
<path d="M1041.76 1197.38C1042.71 1204.91 1046.6 1211.75 1052.6 1216.41L1097.7 1251.27C1120.08 1268.57 1134.64 1294.08 1138.17 1322.14L1147.54 1396.69C1149.51 1412.37 1138.4 1426.67 1122.73 1428.64L1120.25 1428.95C1104.57 1430.92 1090.27 1419.81 1088.3 1404.14L1078.02 1322.36C1077.07 1314.83 1073.18 1307.99 1067.18 1303.33L1058.57 1296.65C1046.09 1286.96 1028.12 1289.22 1018.43 1301.7L1004.28 1319.91C994.589 1332.39 976.619 1334.65 964.139 1324.96L962.169 1323.43C949.689 1313.74 947.429 1295.77 957.119 1283.29L972.558 1263.41C981.538 1251.85 979.439 1235.21 967.889 1226.23C961.899 1221.58 954.299 1219.49 946.769 1220.44L893.289 1227.16C877.609 1229.13 866.499 1243.44 868.479 1259.11C870.449 1274.79 859.549 1293.41 843.879 1295.38L800.198 1296.53L789.639 1297.02C768.799 1297.99 748.308 1291.42 731.928 1278.5L695.919 1250.11L699.188 1249.73C725.348 1246.82 734.718 1213.58 713.928 1197.44L673.208 1165.81C654.278 1151.11 630.289 1144.53 606.519 1147.52L581.838 1150.62C579.838 1145.8 578.459 1140.71 577.799 1135.45L571.779 1087.55C569.809 1071.87 555.508 1060.76 539.828 1062.73L503.769 1067.26C471.509 1071.32 442.059 1048.45 438.009 1016.18L430.468 956.2C428.498 940.53 439.608 926.22 455.278 924.25L457.759 923.94C473.439 921.97 487.738 933.08 489.708 948.75L495.678 996.28C496.488 1002.7 502.349 1007.25 508.769 1006.44L532.379 1003.47C548.059 1001.5 559.168 987.2 557.188 971.52L554.338 948.89C553.388 941.36 549.499 934.52 543.499 929.87L498.399 895.01C476.019 877.71 461.459 852.2 457.929 824.14L448.559 749.59C446.589 733.92 457.699 719.61 473.369 717.64L475.848 717.33C491.528 715.36 505.829 726.47 507.799 742.15L518.078 823.93C519.028 831.46 522.919 838.3 528.919 842.95L537.529 849.63C550.009 859.32 567.979 857.06 577.669 844.58L591.808 826.37C601.498 813.89 619.468 811.63 631.948 821.32L633.919 822.85C646.399 832.54 648.658 850.51 638.968 862.99L623.529 882.87C614.549 894.43 616.648 911.07 628.198 920.05C634.188 924.7 641.788 926.79 649.308 925.84L702.789 919.12C718.469 917.15 729.579 902.85 727.599 887.17C725.629 871.49 736.739 857.19 752.409 855.22L795.879 849.76L806.438 849.27C827.278 848.3 847.769 854.87 864.149 867.79L900.159 896.18L896.889 896.56C870.729 899.47 861.359 932.71 882.149 948.85L922.869 980.48C941.799 995.18 965.788 1001.76 989.558 998.77L1014.24 995.67C1016.24 1000.49 1017.62 1005.58 1018.28 1010.84L1024.3 1058.74C1026.27 1074.42 1040.57 1085.53 1056.25 1083.56L1092.31 1079.03C1124.57 1074.97 1154.02 1097.84 1158.07 1130.11L1165.61 1190.09C1167.58 1205.77 1156.47 1220.07 1140.8 1222.04L1138.32 1222.35C1122.64 1224.32 1108.34 1213.21 1106.37 1197.53L1100.4 1150C1099.59 1143.58 1093.73 1139.03 1087.31 1139.84L1063.69 1142.81C1048.01 1144.78 1036.9 1159.09 1038.88 1174.76L1041.73 1197.39L1041.76 1197.38Z" fill="#00956D"/>
<path d="M819.789 475.36C873.059 516.73 942.929 515.91 975.849 473.52C1008.77 431.13 992.279 363.23 939.009 321.86C885.739 280.49 815.869 281.31 782.949 323.7" stroke="#3FAFE4" stroke-width="63.76" stroke-linecap="round" stroke-linejoin="round"/>
<path d="M734.401 386.21L728.881 393.32" stroke="#3FAFE4" stroke-width="63.76" stroke-linecap="round" stroke-linejoin="round"/>
<path d="M1017.25 621.83L1021.23 653.55" stroke="#3FAFE4" stroke-width="63.76" stroke-linecap="round" stroke-linejoin="round"/>
<path d="M867.721 379.29L880.261 387.04" stroke="#3FAFE4" stroke-width="63.76" stroke-linecap="round" stroke-linejoin="round"/>
<path d="M793.309 576.71L761.52 573.33" stroke="#3FAFE4" stroke-width="63.76" stroke-linecap="round" stroke-linejoin="round"/>
<path d="M952.021 500.68C1023.84 491.65 1089.39 542.5 1098.52 614.3C1095.77 592.38 1101.83 570.27 1115.38 552.83L1169.98 482.52C1212.05 428.36 1202.24 350.35 1148.08 308.28L1051.22 233.05C1081.52 256.59 1087.01 300.23 1063.47 330.54C1039.93 360.84 996.291 366.33 965.981 342.79L939.011 321.84C992.281 363.21 1008.77 431.11 975.851 473.5C962.111 491.19 941.931 501.63 919.211 504.79L952.011 500.67L952.021 500.68ZM1031.35 453.56C1019.89 405.21 1037.37 359.68 1070.39 351.85C1103.41 344.02 1139.47 376.87 1150.93 425.22C1162.39 473.57 1144.91 519.1 1111.89 526.93C1078.87 534.76 1042.81 501.91 1031.35 453.56Z" fill="#3FAFE4" stroke="#3FAFE4" stroke-width="68.31" stroke-linecap="round" stroke-linejoin="round"/>
<path d="M918.221 504.93L919.221 504.8C918.891 504.85 918.561 504.91 918.231 504.95V504.93H918.221Z" fill="#3FAFE4" stroke="#3FAFE4" stroke-width="68.31" stroke-linecap="round" stroke-linejoin="round"/>
<path d="M1098.52 614.3L1103.46 653.63C1109.2 699.27 1076.85 740.91 1031.21 746.65C985.57 752.39 943.93 720.04 938.19 674.4L935.11 649.9C930.74 615.11 902.76 588.04 867.85 584.8" stroke="#3FAFE4" stroke-width="63.76" stroke-linecap="round" stroke-linejoin="round"/>
<path d="M584.039 1063.73L594.679 1071.69" stroke="#3FAFE4" stroke-width="63.76" stroke-linecap="round" stroke-linejoin="round"/>
<path d="M345.6 1049.29L361.44 1061.59C385.66 1080.4 420.52 1076.18 439.55 1052.14L440.24 1051.26C457.12 1029.94 455.88 999.86 438.09 979.29C407.79 944.25 388.21 900.79 382.35 854.15C390.74 920.92 451.68 968.25 518.45 959.86L560.78 954.54C503.77 962.61 471.48 1015.14 488.66 1071.86C505.84 1128.58 565.98 1168.02 622.98 1159.94C668.85 1153.44 698.71 1118.17 699.69 1075.1L699.74 1075.53C704.19 1110.96 743.43 1130.29 774.24 1112.22C802.47 1095.66 807.28 1056.81 783.93 1033.87L748.96 999.5C737.05 987.79 736.93 968.62 748.71 956.77C757.98 947.44 772.23 945.2 783.91 951.24L798.42 958.74C870.53 995.98 958.95 976.41 1008.6 912.2L1026.79 888.68C1042.09 868.89 1070.56 865.28 1090.31 880.63C1110.04 895.95 1113.61 924.37 1098.29 944.1L995.22 1076.81C938.18 1150.25 861.28 1202.66 776.09 1229.9C767.56 1198.44 732.16 1171.99 687.08 1166.63C632.26 1160.11 583.96 1187.24 579.21 1227.22C578.39 1234.14 579.01 1240.97 580.74 1247.6C568.42 1246.01 556.11 1243.96 543.82 1241.32C446.5 1220.42 369.59 1145.92 345.6 1049.32V1049.29Z" fill="#3FAFE4" stroke="#3FAFE4" stroke-width="68.31" stroke-linecap="round" stroke-linejoin="round"/>
<path d="M472.23 507.57L474.271 523.78" stroke="#3FAFE4" stroke-width="36.43" stroke-linecap="round" stroke-linejoin="round"/>
<path d="M545.29 519.61L577.29 544.46C614.42 573.3 621.14 626.78 592.3 663.91C563.46 701.04 509.98 707.76 472.85 678.93L452.91 663.45C424.6 641.47 384.82 642.12 357.25 665.02" stroke="#3FAFE4" stroke-width="63.76" stroke-linecap="round" stroke-linejoin="round"/>
<path d="M507.24 590.92L524.02 603.95" stroke="#3FAFE4" stroke-width="63.76" stroke-linecap="round" stroke-linejoin="round"/>
<path d="M876.83 460.82L920.26 462.04C970.65 463.45 1012.65 423.75 1014.06 373.35C1015.47 322.96 975.77 280.96 925.37 279.55L898.31 278.79C859.89 277.71 827.39 250.07 820.16 212.33" stroke="#D1EAF4" stroke-width="63.76" stroke-linecap="round" stroke-linejoin="round"/>
<path d="M762.83 285.69C788.82 257.38 831 250.95 864.25 270.23" stroke="#D1EAF4" stroke-width="63.76" stroke-linecap="round" stroke-linejoin="round"/>
<path d="M995.02 243.33C961.15 261.48 919.2 253.64 894.17 224.48" stroke="#D1EAF4" stroke-width="63.76" stroke-linecap="round" stroke-linejoin="round"/>
<path d="M1013.73 360.65C1001.58 324.19 1016.41 284.18 1049.4 264.46" stroke="#D1EAF4" stroke-width="63.76" stroke-linecap="round" stroke-linejoin="round"/>
<path d="M739.689 540.49L760.78 543.05" stroke="#D1EAF4" stroke-width="63.76" stroke-linecap="round" stroke-linejoin="round"/>
<path d="M961.1 1108.23C902.92 1071.92 826.32 1089.66 790.02 1147.84C790.02 1147.84 763.62 1208.42 768.21 1210.47C776.29 1181.25 811.27 1148.37 854.59 1132.54C904.07 1114.46 1000.33 1121.71 1065.16 1173.16L961.11 1108.24L961.1 1108.23Z" fill="#D1EAF4" stroke="#D1EAF4" stroke-width="63.76" stroke-linecap="round" stroke-linejoin="round"/>
<path d="M631.129 882.89L650.529 880.46" stroke="#D1EAF4" stroke-width="44.57" stroke-linecap="round" stroke-linejoin="round"/>
<path d="M362.109 614.36L406.589 604.39" stroke="#D1EAF4" stroke-width="44.57" stroke-linecap="round" stroke-linejoin="round"/>
<path d="M560.229 932.23L584.799 962.65" stroke="#D1EAF4" stroke-width="78" stroke-linecap="round" stroke-linejoin="round"/>
<path d="M976.55 933.42C933.94 987.16 855.84 996.18 802.1 953.57C802.1 953.57 756.89 905.38 760.52 901.91C777.95 926.71 821.94 945.94 868.05 946.3C920.73 946.71 1008.96 907.55 1052.74 837.32L976.54 933.42H976.55Z" fill="#D1EAF4" stroke="#D1EAF4" stroke-width="63.76" stroke-linecap="round" stroke-linejoin="round"/>
<path d="M593.349 704.09C568.609 733.5 526.749 741.75 492.689 723.93" stroke="#D1EAF4" stroke-width="63.76" stroke-linecap="round" stroke-linejoin="round"/>
<path d="M644.27 257.37C638.5 295.37 607.1 324.25 568.75 326.81" stroke="#D1EAF4" stroke-width="63.76" stroke-linecap="round" stroke-linejoin="round"/>
<path d="M454.28 1043.98C454.23 1090.04 422.17 1129.87 377.18 1139.76" stroke="#D1EAF4" stroke-width="76.41" stroke-linecap="round" stroke-linejoin="round"/>
<path d="M454.279 1043.98L454.129 1166.93" stroke="#D1EAF4" stroke-width="76.41" stroke-linecap="round" stroke-linejoin="round"/>
<path d="M818.329 765.02C838.899 765.99 858 776.23 869.9 793.03C885.06 814.42 910.289 827.56 937.729 826.59L862.63 829.23C846.72 829.79 831.129 824.71 818.599 814.89L750.939 761.83L818.319 765.01L818.329 765.02Z" fill="#3FAFE4" stroke="#3FAFE4" stroke-width="55.44" stroke-linecap="round" stroke-linejoin="round"/>
<path d="M1129.64 604.14C1148.92 645.97 1136.53 695.58 1099.85 723.43L1181.11 715.81L1179.92 713.23L1129.65 604.15" fill="#D1EAF4"/>
<path d="M1129.64 604.14C1148.92 645.97 1136.53 695.58 1099.85 723.43L1181.11 715.81L1179.92 713.23L1129.65 604.15" stroke="#D1EAF4" stroke-width="63.76" stroke-linecap="round" stroke-linejoin="round"/>
<path d="M846.55 754.78C826.61 731.95 780.839 717.46 734.939 721.95L846.55 754.78Z" fill="#D1EAF4"/>
<path d="M846.55 754.78C826.61 731.95 780.839 717.46 734.939 721.95" stroke="#D1EAF4" stroke-width="63.76" stroke-linecap="round" stroke-linejoin="round"/>
<path d="M906.549 787.85L918.459 792.35" stroke="#D1EAF4" stroke-width="44.57" stroke-linecap="round" stroke-linejoin="round"/>
</g>
<g style="mix-blend-mode:multiply">
<path d="M783.01 192.61C949.86 192.47 1100.52 261.6 1208.06 372.72C1158.5 359.28 1106.4 352 1052.58 352.04C726.23 352.31 461.9 617.09 462.18 943.44C462.31 1102.94 525.73 1247.51 628.53 1353.72C377.57 1285.67 192.83 1056.52 192.6 784C192.33 457.65 456.66 192.88 783 192.6L783.01 192.61Z" fill="#819EDB"/>
</g>
<g style="mix-blend-mode:screen" opacity="0.3">
<path d="M1277.6 874.853C1306.04 674.778 1189.03 492.675 1016.24 468.115C843.458 443.554 680.334 585.838 651.894 785.913C623.455 985.988 740.47 1168.09 913.256 1192.65C1086.04 1217.21 1249.17 1074.93 1277.6 874.853Z" fill="#94BBEB"/>
</g>
<path d="M783.01 192.61C880.32 192.53 972.06 216.11 1053.04 257.71C1001.63 243.17 947.46 235.23 891.39 235.28C565.05 235.55 300.71 500.33 300.99 826.68C301.18 1055.72 431.76 1254.07 622.36 1351.98C374.56 1281.86 192.83 1054.28 192.6 784.01C192.33 457.66 456.66 192.89 783 192.61H783.01Z" fill="#000233"/>
<defs>
<radialGradient id="paint0_radial_1475_17701" cx="0" cy="0" r="1" gradientUnits="userSpaceOnUse" gradientTransform="translate(783.152 784.982) rotate(-137.35) scale(778.19)">
<stop offset="0.24" stop-color="#0019FF"/>
<stop offset="0.37" stop-color="#0019FF" stop-opacity="0.99"/>
<stop offset="0.47" stop-color="#0019FF" stop-opacity="0.95"/>
<stop offset="0.56" stop-color="#001AFF" stop-opacity="0.88"/>
<stop offset="0.64" stop-color="#001BFF" stop-opacity="0.79"/>
<stop offset="0.72" stop-color="#001DFF" stop-opacity="0.67"/>
<stop offset="0.8" stop-color="#001FFF" stop-opacity="0.53"/>
<stop offset="0.88" stop-color="#0021FF" stop-opacity="0.35"/>
<stop offset="0.95" stop-color="#0023FF" stop-opacity="0.16"/>
<stop offset="1" stop-color="#0026FF" stop-opacity="0"/>
</radialGradient>
</defs>
</svg>